<svg id="Capa_1" enable-background="new 0 0 512 512" height="512" viewBox="0 0 512 512" width="512" xmlns="http://www.w3.org/2000/svg"><g><g><path clip-rule="evenodd" d="m353.781 309.844c-10.488 34.271-32.967 57.288-76.904 46.063l-61.625-22.904-17.121-33.392c4.195-1.077 6.69-3.005 6.69-7.569v-27.865c40.904-16.951 73.304-19.361 102.388 0v27.865c0 4.564 2.494 6.491 6.661 7.569 11.65 2.977 25.511 6.236 39.911 10.233z" fill="#ffdfcf" fill-rule="evenodd"/></g><g><path clip-rule="evenodd" d="m455.574 454.298-111.6-34.271-67.096-73.106c34.923-4.11 59.188-15.08 76.904-37.077 47.849 13.295 101.792 34.781 101.792 81.553v44.362z" fill="#f37c7c" fill-rule="evenodd"/></g><g><path clip-rule="evenodd" d="m250.033 470.116h-182.807c-9.128 0-10.8-2.211-10.8-10.97v-67.748c0-41.188 41.84-62.759 84.501-76.422l98.419 57.884 53.32 62.901h-8.249c-18.907-.001-34.384 15.447-34.384 34.355z" fill="#f37c7c" fill-rule="evenodd"/></g><g><path clip-rule="evenodd" d="m393.892 166.808c0 18.68-16.98 28.772-36.114 28.97-15.562-13.805-11.764-38.013 2.665-57.657h15.987c9.581 0 17.461 8.079 17.461 17.688v10.999z" fill="#ffcebf" fill-rule="evenodd"/></g><g><path clip-rule="evenodd" d="m151.557 141.551v-3.43-26.192c0-57.43 46.999-104.429 104.457-104.429 57.43 0 104.429 46.999 104.429 104.429v26.192 3.43c5.924 15.477-202.621 18.907-208.886 0z" fill="#7e707d" fill-rule="evenodd"/></g><g><path clip-rule="evenodd" d="m154.222 195.778c-19.106-.198-36.085-10.29-36.085-28.97v-10.998c0-9.609 7.852-17.688 17.461-17.688h15.959c16.526 12.471 26.561 32.201 2.665 57.656z" fill="#ffcebf" fill-rule="evenodd"/></g><g><path clip-rule="evenodd" d="m282.178 277.416c-9.468 3.515-17.83 5.244-26.164 5.244-8.362 0-16.696-1.729-26.164-5.244-8.731-3.26-17.15-7.767-25.03-13.238-24.576-17.065-43.795-43.342-50.599-68.4-1.729-6.406-2.665-12.756-2.665-18.85v-27.298-8.079c0-27.723 21.912-33.591 35.49-33.591 19.389 0 30.104 19.049 68.967 19.049s49.578-19.049 68.967-19.049c13.55 0 35.462 5.868 35.462 33.591v8.079 27.298c0 6.095-.907 12.444-2.665 18.85-6.803 25.058-25.994 51.336-50.57 68.4-7.879 5.471-16.298 9.978-25.029 13.238z" fill="#ffeee6" fill-rule="evenodd"/></g><g><path clip-rule="evenodd" d="m360.443 176.927c0-12.387.737-26.306-.085-38.665-1.502-22.167-18.085-28.885-30.869-30.104.028 1.304.057 2.608.057 3.912v64.999c0 6.095-.907 12.416-2.665 18.85-10.375 38.183-47.339 75.317-86.06 84.87 5.216 1.247 10.205 1.871 15.194 1.871 8.334 0 16.696-1.729 26.164-5.244 8.731-3.26 17.15-7.767 25.03-13.238 24.576-17.065 43.767-43.342 50.57-68.4 1.757-6.407 2.664-12.756 2.664-18.851z" fill="#ffdfcf" fill-rule="evenodd"/></g><g><path clip-rule="evenodd" d="m360.443 111.929c0-57.43-46.999-104.429-104.429-104.429-5.414 0-10.715.397-15.874 1.219 49.125 7.143 87.449 48.841 89.348 99.44 12.784 1.219 29.367 7.937 30.869 30.104.057 1.049.085 2.154.085 3.288v-3.43-26.192z" fill="#6a5d6a" fill-rule="evenodd"/></g><g><path clip-rule="evenodd" d="m286.77 295.869c8.986-4.082 8.05-1.616 8.05 9.128l-.028 9.609c0 4.564 2.495 6.491 6.661 7.569 8.986 2.296 19.247 4.734 30.076 7.569 8.419-5.301 15.761-11.849 22.252-19.899-14.4-3.997-28.261-7.257-39.912-10.233-4.167-1.077-6.661-3.005-6.661-7.569v-27.865c-7.88 5.471-16.299 9.978-25.03 13.238-9.468 3.515-17.83 5.244-26.164 5.244-4.989 0-9.978-.624-15.194-1.871-3.515-.822-7.143-1.956-10.97-3.373-8.731-3.26-17.15-7.767-25.03-13.238v21.855c12.189 12.699 51.194 23.811 81.95 9.836z" fill="#ffcebf" fill-rule="evenodd"/></g><g><path clip-rule="evenodd" d="m241.075 444.944c6.123-5.698 14.343-9.184 23.329-9.184h8.249l-131.726-120.785c-10.035 3.232-20.041 6.888-29.48 11.14l119.594 109.645z" fill="#ee6161" fill-rule="evenodd"/></g><g><path clip-rule="evenodd" d="m347.63 504.5h-83.225c-18.907 0-34.356-15.477-34.356-34.384s15.449-34.356 34.356-34.356h8.249l63.893 23.273z" fill="#ffdfcf" fill-rule="evenodd"/></g><g><path clip-rule="evenodd" d="m306.017 504.5h41.613l-74.977-68.74h-8.249c-8.986 0-17.206 3.487-23.329 9.184z" fill="#ffcebf" fill-rule="evenodd"/></g><g><path clip-rule="evenodd" d="m455.574 391.397c0-46.772-53.944-68.258-101.792-81.553-6.491 8.05-13.833 14.599-22.252 19.899 3.94 1.105 7.909 2.239 11.906 3.458 44.447 13.55 89.887 35.178 89.887 78.123v29.594l22.252 13.38v-18.538-44.363z" fill="#ee6161" fill-rule="evenodd"/></g><g><path clip-rule="evenodd" d="m347.63 504.5-74.977-68.74-131.726-120.785c20.381-6.491 40.932-11.197 57.203-15.364l78.747 47.31 178.697 107.377v15.817c0 18.907-15.449 34.384-34.356 34.384h-73.588z" fill="#faf5dc" fill-rule="evenodd"/></g><g><path clip-rule="evenodd" d="m163.491 308.399 91.134 57.94 178.697 107.348v15.846c0 4.847-1.02 9.496-2.863 13.691 14.457-4.082 25.115-17.405 25.115-33.109v-15.817l-22.252-13.38-136.716-82.148-19.729-11.849-78.747-47.31c-10.204 2.608-22.138 5.443-34.639 8.788z" fill="#f5ebcd" fill-rule="evenodd"/></g><g><path d="m413.15 323.858c-17.692-9.176-37.925-15.838-57.212-21.194-.076-.023-.153-.043-.229-.064-10.01-2.775-40.768-10.483-41.001-10.573v-24.048c22.614-16.723 40.699-40.779 48.722-65.011 22.614-2.229 37.961-16.529 37.961-36.16v-10.999c0-13.889-11.197-25.188-24.961-25.188h-8.488v-18.692c0-61.718-50.211-111.929-111.928-111.929-61.734 0-111.957 50.211-111.957 111.929v18.692h-8.459c-13.764 0-24.961 11.299-24.961 25.188v10.999c0 19.631 15.337 33.93 37.935 36.16 8.028 24.233 26.124 48.292 48.749 65.016v24.037c-.235.09-42.551 10.684-58.423 15.742-.187.052-.373.11-.556.177-17.657 5.655-35.151 12.647-50.051 21.93-3.516 2.19-4.59 6.815-2.4 10.332 1.422 2.282 3.869 3.535 6.373 3.535 1.354 0 2.725-.367 3.959-1.135 12.602-7.851 27.52-14.026 42.869-19.134l115.553 105.95c-15.999 3.837-28.458 16.882-31.422 33.199h-155.996c-1.55 0-2.538-.078-3.148-.161-.078-.628-.152-1.658-.152-3.31v-67.748c0-8.843 2.154-16.795 6.586-24.311 2.104-3.568.918-8.166-2.65-10.27s-8.165-.917-10.27 2.651c-5.75 9.751-8.666 20.494-8.666 31.93v67.748c0 13.119 5.302 18.47 18.301 18.47h155.994c3.542 19.528 20.661 34.384 41.182 34.384h156.813c23.08 0 41.856-18.789 41.856-41.884v-78.718c.001-27.635-16.796-50.358-49.923-67.54zm-45.208-146.931v-31.306h8.488c5.399 0 9.961 4.666 9.961 10.188v10.999c0 11.339-8.662 17.908-19.209 20.359.485-3.448.76-6.871.76-10.24zm-242.305-10.119v-10.999c0-5.522 4.562-10.188 9.961-10.188h8.459v31.306c0 3.368.276 6.79.76 10.237-10.533-2.452-19.18-9.021-19.18-20.356zm197.69 142.906c5.261 1.307 10.809 2.686 16.521 4.166-14.725 13.797-34.197 21.757-61.33 25.277l-67.513-40.561c.986-2.194 1.315-4.492 1.315-6.554v-14.452c4.857 2.653 9.841 4.971 14.92 6.857 10.5 3.897 19.643 5.713 28.773 5.713 9.132 0 18.274-1.815 28.774-5.713 5.079-1.886 10.063-4.204 14.92-6.858v14.454c0 5.317 2.131 12.206 12.305 14.835 3.582.915 7.369 1.856 11.315 2.836zm-67.313-294.714c52.428 0 95.263 41.842 96.876 93.887-8.118-5.936-18.393-8.427-27.908-8.427-9.794 0-17.462 3.827-25.581 7.879-10.489 5.235-22.379 11.169-43.387 11.169s-32.896-5.934-43.387-11.169c-8.118-4.052-15.786-7.879-25.58-7.879-9.526 0-19.812 2.493-27.938 8.435 1.61-52.048 44.459-93.895 96.905-93.895zm-94.422 179.39c-.065-.349-.16-.686-.272-1.016-1.467-5.587-2.263-11.113-2.263-16.446v-35.376c0-22.701 17.537-26.091 27.99-26.091 6.258 0 11.829 2.78 18.882 6.3 11.38 5.68 25.542 12.749 50.085 12.749 24.544 0 38.706-7.068 50.085-12.748 7.054-3.521 12.624-6.301 18.883-6.301 10.442 0 27.961 3.39 27.961 26.091v35.376c0 5.332-.795 10.856-2.26 16.442-.113.333-.209.673-.274 1.025-8.598 31.066-38.022 63.805-70.84 75.99-8.776 3.258-16.261 4.775-23.554 4.775s-14.776-1.518-23.553-4.775c-32.833-12.191-62.27-44.932-70.87-75.995zm102.812 302.61c-14.534 0-26.409-11.618-26.843-26.064.029-.27.044-.543.044-.82s-.015-.551-.044-.82c.436-14.43 12.31-26.036 26.843-26.036h5.337l58.612 53.74zm183.67-55.96-62.679-37.674c-3.548-2.134-8.158-.986-10.291 2.564-2.135 3.55-.986 8.158 2.563 10.292l70.406 42.319v11.574c0 14.824-12.048 26.884-26.856 26.884h-70.67l-194.844-178.65c11.387-3.264 38.588-10.03 41.244-10.699l76.025 45.675c.009.005.018.011.027.016l72.299 43.437c1.209.727 2.54 1.072 3.855 1.072 2.546 0 5.029-1.297 6.436-3.639 2.134-3.55.984-8.158-2.566-10.291l-54.892-32.979c25.138-5.689 43.685-16.123 58.254-32.569 44.364 12.731 91.688 32.78 91.688 73.025v49.643z"/><path d="m303.041 176.377c4.143 0 7.5-3.358 7.5-7.5v-5.754c0-4.142-3.357-7.5-7.5-7.5s-7.5 3.358-7.5 7.5v5.754c0 4.142 3.357 7.5 7.5 7.5z"/><path d="m208.959 155.623c-4.143 0-7.5 3.358-7.5 7.5v5.754c0 4.142 3.357 7.5 7.5 7.5s7.5-3.358 7.5-7.5v-5.754c0-4.143-3.357-7.5-7.5-7.5z"/><path d="m238.924 234.799c1.741 0 3.491-.603 4.91-1.833 7.772-6.739 18.148-5.393 23.688-.197 3.021 2.835 7.768 2.683 10.602-.338s2.683-7.767-.338-10.601c-11.852-11.118-31.078-11.206-43.777-.197-3.13 2.713-3.467 7.45-.754 10.58 1.482 1.71 3.57 2.586 5.669 2.586z"/></g></g></svg>