<svg height="512" viewBox="0 0 128 128" width="512" xmlns="http://www.w3.org/2000/svg"><g id="Circle_Grid" data-name="Circle Grid"><circle cx="64" cy="64" fill="#2cbfae" r="64"/></g><g id="icon"><path d="m52.84 64.609-1.145.462-1.33 5.039.615 12.614 4.611 16.032 9.352 1.991h2.856l4.61-1.991 4.611-16.032.615-12.614-1.33-5.039-1.145-.462" fill="#eeefee"/><path d="m74.295 62.919-10.295 9.352 5.148 5.03 6.667-12.484z" fill="#dbd8dd"/><path d="m75.815 64.817.7.362a80.7 80.7 0 0 0 10.927 4.8c3.778 1.3 10.108 5.575 10.328 19.658v13.363h-34.713v-1.415l7.975-15.634a35.522 35.522 0 0 0 3.145-8.96 79.94 79.94 0 0 0 1.638-12.174z" fill="#ef5261"/><path d="m53.705 62.919 10.295 9.352-5.148 5.03-6.667-12.484z" fill="#dbd8dd"/><path d="m52.185 64.817-.7.362a80.7 80.7 0 0 1 -10.927 4.8c-3.778 1.3-10.108 5.575-10.328 19.658v13.363h34.713v-1.415l-7.975-15.634a35.522 35.522 0 0 1 -3.145-8.96 79.94 79.94 0 0 1 -1.638-12.174z" fill="#ef5261"/><path d="m73.553 63.592-9.553 8.682-9.569-8.7a3.861 3.861 0 0 0 .729-.987 7.13 7.13 0 0 0 .71-2.182c.478-2.779 16.931-.629 16.931-.629a10 10 0 0 0 .107 1.823 5.386 5.386 0 0 0 .645 1.993z" fill="#fed19a"/><path d="m72.906 61.6a21.126 21.126 0 0 1 -7.186 3.96 7.2 7.2 0 0 1 -4.627 0 22.575 22.575 0 0 1 -5.935-2.974 7.13 7.13 0 0 0 .71-2.182c.478-2.779 16.931-.629 16.931-.629a10 10 0 0 0 .107 1.825z" fill="#f4bb87"/><path d="m80.476 50.03c-1.088 2.534-2.144 3.25-3.106 2.949 0 0-.641 7.714-11.65 11.455a7.2 7.2 0 0 1 -4.627 0c-11.009-3.741-11.65-11.455-11.65-11.455-.962.3-2.018-.415-3.106-2.949-2.735-6.375-.648-8 .924-8.387a3.839 3.839 0 0 1 .547-.094 4.876 4.876 0 0 1 .723-.013.388.388 0 0 0 .057.006l2.446-9.116 4.873-4.162h12.1l8.8 2.276 1.415 11a.285.285 0 0 0 .05-.006 3.063 3.063 0 0 1 .308-.013 4.064 4.064 0 0 1 .968.119c1.575.393 3.669 2.015.928 8.39z" fill="#fed19a"/><path d="m73.406 57.889c0 5.1-20 5.1-20 0v-8.189a1.522 1.522 0 0 1 .747-1.324c3.761-2.169 14.534-2.026 18.453.024a1.521 1.521 0 0 1 .8 1.354z" fill="#eeefee"/><g fill="#dbd8dd"><path d="m70.838 51.6a.333.333 0 0 1 -.049 0 48.546 48.546 0 0 0 -14.836 0 .314.314 0 0 1 -.1-.621 49.176 49.176 0 0 1 15.028 0 .314.314 0 0 1 -.048.625z"/><path d="m70.837 54.575h-14.932a.314.314 0 0 1 0-.629h14.932a.314.314 0 0 1 0 .629z"/><path d="m63.371 58.2a43.455 43.455 0 0 1 -7.52-.657.314.314 0 0 1 .109-.62 42.717 42.717 0 0 0 14.823 0 .314.314 0 0 1 .109.62 43.455 43.455 0 0 1 -7.521.657z"/></g><path d="m79.551 41.643c-1.176 5.143-5.86 8.827-6.073 8.991l-.773-.993a18.933 18.933 0 0 0 4.885-6.161 10.615 10.615 0 0 0 .685-1.943 8.373 8.373 0 0 0 .214-1.119l.478.063c-.126.377-.258.723-.384 1.044a4.064 4.064 0 0 1 .968.118z" fill="#eeefee"/><path d="m54.107 49.641-.773.993c-.214-.163-4.9-3.848-6.073-8.991a3.839 3.839 0 0 1 .547-.094 4.876 4.876 0 0 1 .723-.013c1.15 4.628 5.532 8.064 5.576 8.105z" fill="#eeefee"/><path d="m80.149 35.111a22.479 22.479 0 0 1 -1.182 5.369c-.126.377-.258.723-.384 1.044a18.32 18.32 0 0 1 -.987 2.144l-.006-.189-.075-1.44a4.987 4.987 0 0 0 -4.98-4.739h-6.206a4.169 4.169 0 0 1 -2.446-.786 53.905 53.905 0 0 1 -7.193-6.444c-5.9 1.1-6.287 13.36-6.287 13.36a3.181 3.181 0 0 1 -2.6-1.88c-.886-1.534-1.54-4.338-1.019-9.437 1.176-11.474 8.569-9.041 8.569-9.041a14.581 14.581 0 0 1 6.193-3.533 14.735 14.735 0 0 1 18.603 15.572z" fill="#414451"/></g></svg>