<svg id="Capa_1" enable-background="new 0 0 511.954 511.954" height="512" viewBox="0 0 511.954 511.954" width="512" xmlns="http://www.w3.org/2000/svg"><g><g><path d="m482.529 206.698-203.945-190.334c-12.73-11.88-32.484-11.88-45.213 0l-203.944 190.334v207.59h453.102z" fill="#ffbd61"/><path d="m189.068 355.685 44.304 41.347c12.73 11.88 32.483 11.88 45.213 0 0 0 68.809-64.218 126.492-118.051v-221.827c0-9.149-7.417-16.567-16.567-16.567h-265.066c-9.15 0-16.567 7.417-16.567 16.567v221.824z" fill="#f9f5f3"/><path d="m388.511 40.588h-23c9.15 0 16.567 7.417 16.567 16.567v243.292c7.738-7.221 15.464-14.432 23-21.465v-221.828c0-9.149-7.417-16.566-16.567-16.566z" fill="#f9eae0"/><path d="m29.427 206.698 159.641 148.986 44.304 41.347c12.73 11.88 32.484 11.88 45.213 0 0 0 203.943-190.334 203.944-190.333 3.308 3.029 5.382 7.383 5.382 12.221v252.401c0 18.299-14.834 33.133-33.134 33.133h-53.842-289.916-53.843c-18.299 0-33.133-14.834-33.133-33.133v-252.4c0-4.839 2.075-9.194 5.383-12.223z" fill="#ffce69"/><path d="m29.427 206.698 159.641 148.986 44.304 41.347c12.73 11.88 32.484 11.88 45.213 0 0 0 203.943-190.334 203.944-190.333 3.308 3.029 5.382 7.383 5.382 12.221v252.401c0 18.299-14.834 33.133-33.134 33.133h-53.842-289.916-53.843c-18.299 0-33.133-14.834-33.133-33.133v-252.4c0-4.839 2.075-9.194 5.383-12.223z" fill="#ffce69"/><path d="m482.53 206.699s-6.68 6.234-17.618 16.442v248.18c0 18.299-14.835 33.134-33.134 33.134h23c18.299 0 33.134-14.834 33.134-33.134v-252.4c0-4.839-2.074-9.193-5.382-12.222z" fill="#ffbd61"/><path d="m438.211 471.323c9.15 0 16.567-7.417 16.567-16.567s-7.417-16.567-16.567-16.567h-66.267c-9.15 0-16.567 7.417-16.567 16.567s7.417 16.567 16.567 16.567z" fill="#f9f5f3"/><path d="m438.212 438.19h-23c9.15 0 16.567 7.417 16.567 16.567s-7.417 16.567-16.567 16.567h23c9.15 0 16.567-7.417 16.567-16.567-.001-9.15-7.418-16.567-16.567-16.567z" fill="#f9eae0"/><g><g><ellipse cx="255.978" cy="253.521" fill="#a0c8ff" rx="16.567" ry="16.567" transform="matrix(.16 -.987 .987 .16 -35.272 465.584)"/><g><path d="m255.978 203.821c-9.15 0-16.567-7.417-16.567-16.567v-16.567c0-15.174 8.971-28.663 22.853-34.364 6.619-2.718 10.733-9.367 10.238-16.546-.554-8.035-7.28-14.762-15.314-15.316-4.66-.315-9.117 1.244-12.509 4.41-3.397 3.17-5.268 7.473-5.268 12.116 0 9.15-7.417 16.567-16.567 16.567s-16.567-7.417-16.567-16.567c0-13.725 5.757-26.969 15.793-36.338 10.032-9.363 23.654-14.194 37.399-13.242 24.579 1.696 44.393 21.51 46.087 46.09 1.48 21.442-10.86 41.326-30.706 49.476-1.379.566-2.306 2.059-2.306 3.714v16.567c.001 9.15-7.416 16.567-16.566 16.567z" fill="#a0c8ff"/></g></g></g></g><g><path d="m487.664 201.233c-.006-.006-.011-.012-.018-.018l-.037-.034c-.005-.004-.009-.009-.014-.014-.001-.001-.003-.002-.004-.004l-75.013-70.007v-32.777c0-4.143-3.357-7.5-7.5-7.5s-7.5 3.357-7.5 7.5v177.342l-124.11 115.827c-9.807 9.154-25.172 9.154-34.979 0l-124.112-115.829v-218.564c0-5 4.067-9.067 9.066-9.067h265.068c4.999 0 9.066 4.067 9.066 9.067v11.225c0 4.143 3.357 7.5 7.5 7.5s7.5-3.357 7.5-7.5v-11.225c0-13.271-10.796-24.067-24.066-24.067h-81.016l-23.794-22.206c-15.544-14.508-39.899-14.509-55.447 0l-23.794 22.206h-81.016c-13.271 0-24.066 10.797-24.066 24.067v74.003l-75.01 70.004c-.001.001-.003.003-.005.004-.006.005-.011.011-.017.016l-.035.033c-.006.005-.011.012-.017.017-4.926 4.545-7.751 10.986-7.751 17.688v252.4c0 22.405 18.229 40.634 40.634 40.634h34.701c4.143 0 7.5-3.357 7.5-7.5s-3.357-7.5-7.5-7.5h-34.702c-14.135 0-25.634-11.499-25.634-25.634v-252.388l196.713 183.582c7.773 7.256 17.747 10.883 27.724 10.883 9.975 0 19.952-3.628 27.724-10.882l196.709-183.581v252.387c0 14.135-11.499 25.634-25.634 25.634h-332.9c-4.143 0-7.5 3.357-7.5 7.5s3.357 7.5 7.5 7.5h332.9c22.405 0 40.634-18.229 40.634-40.634v-252.4c0-6.701-2.824-13.141-7.748-17.688zm-249.176-179.385c9.807-9.154 25.172-9.154 34.979 0l12.043 11.239h-59.065zm-139.111 239.872-58.957-55.021 58.956-55.023v110.044zm313.201-110.045 58.958 55.024-58.958 55.024z"/><path d="m438.212 478.824c13.271 0 24.066-10.797 24.066-24.067s-10.796-24.066-24.066-24.066h-66.268c-13.27 0-24.066 10.796-24.066 24.066s10.796 24.067 24.066 24.067zm-75.334-24.068c0-4.999 4.067-9.066 9.066-9.066h66.268c4.999 0 9.066 4.067 9.066 9.066 0 5-4.067 9.067-9.066 9.067h-66.268c-4.999.001-9.066-4.067-9.066-9.067z"/><path d="m255.977 229.454c-13.271 0-24.066 10.796-24.066 24.066s10.796 24.066 24.066 24.066 24.066-10.796 24.066-24.066c.001-13.27-10.795-24.066-24.066-24.066zm0 33.133c-4.999 0-9.066-4.067-9.066-9.066s4.067-9.066 9.066-9.066 9.066 4.067 9.066 9.066c.001 4.999-4.067 9.066-9.066 9.066z"/><path d="m280.045 172.888c21.461-9.944 34.638-32.09 32.995-55.905-1.952-28.296-24.76-51.105-53.053-53.058-15.799-1.095-31.484 4.462-43.033 15.242-11.551 10.78-18.176 26.023-18.176 41.82 0 13.27 10.796 24.066 24.066 24.066 13.271 0 24.066-10.796 24.066-24.066 0-2.578.998-4.871 2.885-6.632 1.854-1.729 4.306-2.583 6.877-2.411 4.306.297 8.051 4.043 8.348 8.351.272 3.948-1.979 7.603-5.605 9.091-16.708 6.861-27.504 23.073-27.504 41.302v16.566c0 13.27 10.797 24.067 24.067 24.067 13.271 0 24.066-10.797 24.066-24.067v-14.366zm-8.043-12.851c-4.227 1.736-6.957 5.917-6.957 10.651v16.566c0 5-4.067 9.067-9.066 9.067-5 0-9.067-4.067-9.067-9.067v-16.566c0-12.12 7.145-22.885 18.202-27.427 9.613-3.946 15.59-13.591 14.872-23.999-.808-11.689-10.594-21.477-22.29-22.282-.572-.039-1.141-.059-1.706-.059-6.142 0-11.921 2.263-16.426 6.467-4.934 4.604-7.652 10.854-7.652 17.6 0 4.999-4.067 9.066-9.066 9.066s-9.066-4.067-9.066-9.066c0-11.654 4.888-22.9 13.41-30.855 8.521-7.952 20.099-12.049 31.766-11.242 20.863 1.438 37.683 18.259 39.121 39.125 1.255 18.212-9.223 35.1-26.075 42.021z"/></g></g></svg>